<?xml version="1.0" standalone="no"?><!DOCTYPE svg PUBLIC "-//W3C//DTD SVG 1.1//EN" "http://www.w3.org/Graphics/SVG/1.1/DTD/svg11.dtd"><svg xmlns:xlink="http://www.w3.org/1999/xlink" version="1.1" class="highcharts-root" style="font-family:frutigerltw02-45light;font-size:11px;font-weight:300;" xmlns="http://www.w3.org/2000/svg" width="600" viewBox="0 0 600 275" height="275"><desc>Created with Highcharts 5.0.0</desc><defs><clipPath id="highcharts-25"><rect x="0" y="0" width="508" height="62" fill="none"></rect></clipPath></defs><rect fill="#FFFFFF" class="highcharts-background" x="0" y="0" width="600" height="275" rx="0" ry="0"></rect><rect fill="none" class="highcharts-plot-background" x="82" y="57" width="508" height="62"></rect><g class="highcharts-grid highcharts-xaxis-grid "><path fill="none" class="highcharts-grid-line" d="M 132.5 57 L 132.5 119" opacity="1"></path><path fill="none" class="highcharts-grid-line" d="M 183.5 57 L 183.5 119" opacity="1"></path><path fill="none" class="highcharts-grid-line" d="M 233.5 57 L 233.5 119" opacity="1"></path><path fill="none" class="highcharts-grid-line" d="M 284.5 57 L 284.5 119" opacity="1"></path><path fill="none" class="highcharts-grid-line" d="M 335.5 57 L 335.5 119" opacity="1"></path><path fill="none" class="highcharts-grid-line" d="M 386.5 57 L 386.5 119" opacity="1"></path><path fill="none" class="highcharts-grid-line" d="M 437.5 57 L 437.5 119" opacity="1"></path><path fill="none" class="highcharts-grid-line" d="M 487.5 57 L 487.5 119" opacity="1"></path><path fill="none" class="highcharts-grid-line" d="M 538.5 57 L 538.5 119" opacity="1"></path><path fill="none" class="highcharts-grid-line" d="M 589.5 57 L 589.5 119" opacity="1"></path><path fill="none" class="highcharts-grid-line" d="M 81.5 57 L 81.5 119" opacity="1"></path></g><g class="highcharts-grid highcharts-yaxis-grid "><path fill="none" stroke="#eeeeee" stroke-width="1" class="highcharts-grid-line" d="M 82 119.5 L 590 119.5" opacity="1"></path><path fill="none" stroke="#eeeeee" stroke-width="1" class="highcharts-grid-line" d="M 82 56.5 L 590 56.5" opacity="1"></path></g><rect fill="none" class="highcharts-plot-border" x="82" y="57" width="508" height="62"></rect><g class="highcharts-axis highcharts-xaxis "><path fill="none" class="highcharts-tick" stroke="#e0e0e0" stroke-width="1" d="M 132.5 119 L 132.5 126" opacity="1"></path><path fill="none" class="highcharts-tick" stroke="#e0e0e0" stroke-width="1" d="M 183.5 119 L 183.5 126" opacity="1"></path><path fill="none" class="highcharts-tick" stroke="#e0e0e0" stroke-width="1" d="M 233.5 119 L 233.5 126" opacity="1"></path><path fill="none" class="highcharts-tick" stroke="#e0e0e0" stroke-width="1" d="M 284.5 119 L 284.5 126" opacity="1"></path><path fill="none" class="highcharts-tick" stroke="#e0e0e0" stroke-width="1" d="M 335.5 119 L 335.5 126" opacity="1"></path><path fill="none" class="highcharts-tick" stroke="#e0e0e0" stroke-width="1" d="M 386.5 119 L 386.5 126" opacity="1"></path><path fill="none" class="highcharts-tick" stroke="#e0e0e0" stroke-width="1" d="M 437.5 119 L 437.5 126" opacity="1"></path><path fill="none" class="highcharts-tick" stroke="#e0e0e0" stroke-width="1" d="M 487.5 119 L 487.5 126" opacity="1"></path><path fill="none" class="highcharts-tick" stroke="#e0e0e0" stroke-width="1" d="M 538.5 119 L 538.5 126" opacity="1"></path><path fill="none" class="highcharts-tick" stroke="#e0e0e0" stroke-width="1" d="M 590.5 119 L 590.5 126" opacity="1"></path><path fill="none" class="highcharts-tick" stroke="#e0e0e0" stroke-width="1" d="M 81.5 119 L 81.5 126" opacity="1"></path><path fill="none" class="highcharts-axis-line" stroke="#e0e0e0" stroke-width="1" d="M 82 119.5 L 590 119.5"></path></g><g class="highcharts-axis highcharts-yaxis "><text x="22" text-anchor="middle" transform="translate(0,0) rotate(270 22 88)" class="highcharts-axis-title" style="color:#666666;fill:#666666;" y="88"><tspan>1000 US$</tspan></text><path fill="none" class="highcharts-axis-line" stroke="#e0e0e0" stroke-width="1" d="M 81.5 57 L 81.5 119"></path></g><g class="highcharts-series-group"><g class="highcharts-series highcharts-series-0 highcharts-column-series highcharts-color-0 " transform="translate(82,57) scale(1 1)" width="62" height="508" clip-path="url(#highcharts-25)"><rect x="12.5" y="15.5" width="25" height="47" fill="#1976D2" class="highcharts-point highcharts-color-0" stroke="#ffffff" stroke-width="1"></rect><rect x="63.5" y="16.5" width="25" height="46" fill="#1976D2" class="highcharts-point highcharts-color-0" stroke="#ffffff" stroke-width="1"></rect><rect x="114.5" y="47.5" width="25" height="15" fill="#1976D2" class="highcharts-point highcharts-color-0" stroke="#ffffff" stroke-width="1"></rect><rect x="165.5" y="51.5" width="25" height="11" fill="#1976D2" class="highcharts-point highcharts-color-0" stroke="#ffffff" stroke-width="1"></rect><rect x="215.5" y="53.5" width="25" height="9" fill="#1976D2" class="highcharts-point highcharts-color-0" stroke="#ffffff" stroke-width="1"></rect><rect x="266.5" y="56.5" width="25" height="6" fill="#1976D2" class="highcharts-point highcharts-color-0" stroke="#ffffff" stroke-width="1"></rect><rect x="317.5" y="57.5" width="25" height="5" fill="#1976D2" class="highcharts-point highcharts-color-0" stroke="#ffffff" stroke-width="1"></rect><rect x="368.5" y="58.5" width="25" height="4" fill="#1976D2" class="highcharts-point highcharts-color-0" stroke="#ffffff" stroke-width="1"></rect><rect x="419.5" y="59.5" width="25" height="3" fill="#1976D2" class="highcharts-point highcharts-color-0" stroke="#ffffff" stroke-width="1"></rect><rect x="469.5" y="60.5" width="25" height="2" fill="#1976D2" class="highcharts-point highcharts-color-0" stroke="#ffffff" stroke-width="1"></rect></g><g class="highcharts-markers highcharts-series-0 highcharts-column-series highcharts-color-0 " transform="translate(82,57) scale(1 1)" width="62" height="508" clip-path="none"></g></g><text x="280" text-anchor="middle" class="highcharts-title" style="color:#333333;font-size:18px;fill:#333333;width:536px;" y="24"><tspan>Top 10 Commodities, Import Value in Nigeria</tspan></text><text x="280" text-anchor="middle" class="highcharts-subtitle" style="color:#666666;fill:#666666;width:536px;" y="43"><tspan>2020</tspan></text><g class="highcharts-legend" transform="translate(247,220)"><rect fill="#FFFFFF" class="highcharts-legend-box" rx="0" ry="0" x="0" y="0" width="106" height="40" visibility="visible"></rect><g><g><g class="highcharts-legend-item highcharts-column-series highcharts-color-0 highcharts-series-0" transform="translate(8,3)"><text x="26" style="color:#707070;font-size:12px;font-weight:300;cursor:pointer;fill:#707070;" text-anchor="start" y="15"><tspan>Nigeria</tspan><tspan x="26" dy="15">Import Value</tspan></text><rect x="2" y="4" width="12" height="12" fill="#1976D2" rx="6" ry="6" class="highcharts-point"></rect></g></g></g></g><g class="highcharts-axis-labels highcharts-xaxis-labels "><text x="110.22842712474619" style="color:#707070;cursor:default;font-size:11;font-weight:300;fill:#707070;width:90.75px;text-overflow:ellipsis;" text-anchor="end" transform="translate(0,0) rotate(-45 110.22842712474619 144)" y="144" opacity="1"><tspan>Oil, palm</tspan></text><text x="161.02842712474617" style="color:#707070;cursor:default;font-size:11;font-weight:300;fill:#707070;width:90.75px;text-overflow:ellipsis;" text-anchor="end" transform="translate(0,0) rotate(-45 161.02842712474617 144)" y="144" opacity="1"><tspan>Wheat</tspan></text><text x="211.82842712474618" style="color:#707070;cursor:default;font-size:11;font-weight:300;fill:#707070;width:90.75px;text-overflow:ellipsis;" text-anchor="end" transform="translate(0,0) rotate(-45 211.82842712474618 144)" y="144" opacity="1"><tspan>Sugar Raw Centri…</tspan><title>Sugar Raw Centrifugal</title></text><text x="262.6284271247462" style="color:#707070;cursor:default;font-size:11;font-weight:300;fill:#707070;width:90.75px;text-overflow:ellipsis;" text-anchor="end" transform="translate(0,0) rotate(-45 262.6284271247462 144)" y="144" opacity="1"><tspan>Food prep nes</tspan></text><text x="313.42842712474624" style="color:#707070;cursor:default;font-size:11;font-weight:300;fill:#707070;width:90.75px;text-overflow:ellipsis;" text-anchor="end" transform="translate(0,0) rotate(-45 313.42842712474624 144)" y="144" opacity="1"><tspan>Food preparation…</tspan><title>Food preparations, flour, malt extract</title></text><text x="364.2284271247462" style="color:#707070;cursor:default;font-size:11;font-weight:300;fill:#707070;width:90.75px;text-overflow:ellipsis;" text-anchor="end" transform="translate(0,0) rotate(-45 364.2284271247462 144)" y="144" opacity="1"><tspan>Milk, whole dried</tspan></text><text x="415.0284271247462" style="color:#707070;cursor:default;font-size:11;font-weight:300;fill:#707070;width:90.75px;text-overflow:ellipsis;" text-anchor="end" transform="translate(0,0) rotate(-45 415.0284271247462 144)" y="144" opacity="1"><tspan>Milk, skimmed d…</tspan><title>Milk, skimmed dried</title></text><text x="465.8284271247462" style="color:#707070;cursor:default;font-size:11;font-weight:300;fill:#707070;width:90.75px;text-overflow:ellipsis;" text-anchor="end" transform="translate(0,0) rotate(-45 465.8284271247462 144)" y="144" opacity="1"><tspan>Beverages, distill…</tspan><title>Beverages, distilled alcoholic</title></text><text x="516.6284271247462" style="color:#707070;cursor:default;font-size:11;font-weight:300;fill:#707070;width:90.75px;text-overflow:ellipsis;" text-anchor="end" transform="translate(0,0) rotate(-45 516.6284271247462 144)" y="144" opacity="1"><tspan>Sugar refined</tspan></text><text x="567.4284271247462" style="color:#707070;cursor:default;font-size:11;font-weight:300;fill:#707070;width:90.75px;text-overflow:ellipsis;" text-anchor="end" transform="translate(0,0) rotate(-45 567.4284271247462 144)" y="144" opacity="1"><tspan>Tobacco, unmanu…</tspan><title>Tobacco, unmanufactured</title></text></g><g class="highcharts-axis-labels highcharts-yaxis-labels "><text x="67" style="color:#707070;cursor:default;font-size:12;font-weight:300;fill:#707070;width:188px;text-overflow:clip;" text-anchor="end" transform="translate(0,0)" y="124" opacity="1"><tspan>0</tspan></text><text x="67" style="color:#707070;cursor:default;font-size:12;font-weight:300;fill:#707070;width:188px;text-overflow:clip;" text-anchor="end" transform="translate(0,0)" y="62" opacity="1"><tspan>2,000k</tspan></text></g><g class="highcharts-label highcharts-tooltip" display="none" style="cursor:default;pointer-events:none;white-space:nowrap;" transform="translate(0,0)"><path fill="none" class="highcharts-label-box highcharts-tooltip-box" d="M 3.5 0.5 L 13.5 0.5 C 16.5 0.5 16.5 0.5 16.5 3.5 L 16.5 13.5 C 16.5 16.5 16.5 16.5 13.5 16.5 L 3.5 16.5 C 0.5 16.5 0.5 16.5 0.5 13.5 L 0.5 3.5 C 0.5 0.5 0.5 0.5 3.5 0.5"  stroke="#000000" stroke-opacity="0.049999999999999996" stroke-width="5" transform="translate(1, 1)"></path><path fill="none" class="highcharts-label-box highcharts-tooltip-box" d="M 3.5 0.5 L 13.5 0.5 C 16.5 0.5 16.5 0.5 16.5 3.5 L 16.5 13.5 C 16.5 16.5 16.5 16.5 13.5 16.5 L 3.5 16.5 C 0.5 16.5 0.5 16.5 0.5 13.5 L 0.5 3.5 C 0.5 0.5 0.5 0.5 3.5 0.5"  stroke="#000000" stroke-opacity="0.09999999999999999" stroke-width="3" transform="translate(1, 1)"></path><path fill="none" class="highcharts-label-box highcharts-tooltip-box" d="M 3.5 0.5 L 13.5 0.5 C 16.5 0.5 16.5 0.5 16.5 3.5 L 16.5 13.5 C 16.5 16.5 16.5 16.5 13.5 16.5 L 3.5 16.5 C 0.5 16.5 0.5 16.5 0.5 13.5 L 0.5 3.5 C 0.5 0.5 0.5 0.5 3.5 0.5"  stroke="#000000" stroke-opacity="0.15" stroke-width="1" transform="translate(1, 1)"></path><path fill="rgb(247,247,247)" fill-opacity="0.85" class="highcharts-label-box highcharts-tooltip-box" d="M 3.5 0.5 L 13.5 0.5 C 16.5 0.5 16.5 0.5 16.5 3.5 L 16.5 13.5 C 16.5 16.5 16.5 16.5 13.5 16.5 L 3.5 16.5 C 0.5 16.5 0.5 16.5 0.5 13.5 L 0.5 3.5 C 0.5 0.5 0.5 0.5 3.5 0.5"></path><text x="8" style="font-size:12px;color:#333333;fill:#333333;" y="20"></text></g><text x="590" class="highcharts-credits" text-anchor="end" style="cursor:pointer;color:#999999;font-size:7px;fill:#999999;" y="270"><tspan>Source: FAOSTAT (Feb 24, 2022)</tspan></text></svg>